<svg xmlns="http://www.w3.org/2000/svg" width="20" height="20" viewBox="0 0 20 20"><g><g><path fill="#333" d="M.4 10a9.6 9.6 0 1 1 19.2 0A9.6 9.6 0 0 1 .4 10zm14.46-1.907c.048-.044.178-.167.269-.384a.886.886 0 0 0 .061-.475.96.96 0 0 0-.273-.524.982.982 0 0 0-.512-.293.922.922 0 0 0-.475.033c-.157.052-.3.14-.42.252L8.581 11.79 6.468 9.605a1.023 1.023 0 0 0-.394-.261.851.851 0 0 0-.474-.036.99.99 0 0 0-.503.294 1.02 1.02 0 0 0-.28.508.895.895 0 0 0 .034.47c.076.223.201.351.245.396l3.486 3.599z"/></g></g></svg>